PathFileType	4	(X/Y/Z)	../Python\walking\Walking16\task.trc
DataRate	CameraRate	NumFrames	NumMarkers	Units	OrigDataRate	OrigDataStartFrame	OrigNumFrames
200.000000	200.000000	7	30	mm	200.000000	0	452
Frame#	Time	C7			RBAK			CLAV			STRN			RASI			LASI			PE01			RTH1			RTH2			RTH3			RD5M			RTOE			LTH2			LTH3			LTB2			LTB3			LHEE			LTOE			LD5M			LTB1			RTB2			RHEE			RTB3			RTB1			LTH1			LPSI			PE03			PE02			RPSI			T10			
		X1	Y1	Z1	X2	Y2	Z2	X3	Y3	Z3	X4	Y4	Z4	X5	Y5	Z5	X6	Y6	Z6	X7	Y7	Z7	X8	Y8	Z8	X9	Y9	Z9	X10	Y10	Z10	X11	Y11	Z11	X12	Y12	Z12	X13	Y13	Z13	X14	Y14	Z14	X15	Y15	Z15	X16	Y16	Z16	X17	Y17	Z17	X18	Y18	Z18	X19	Y19	Z19	X20	Y20	Z20	X21	Y21	Z21	X22	Y22	Z22	X23	Y23	Z23	X24	Y24	Z24	X25	Y25	Z25	X26	Y26	Z26	X27	Y27	Z27	X28	Y28	Z28	X29	Y29	Z29	X30	Y30	Z30	

1	0	-1515.503784179688	1355.572875976563	143.8612060546876	-1573.591674804688	1258.793823242188	246.8915252685548	-1399.15087890625	1255.907592773438	149.1648559570313	-1346.103637695313	1072.233154296875	157.9152374267579	-1387.721801757813	874.341430664063	274.4776611328126	-1370.442016601563	876.1564941406255	47.99092102050783	-1576.274780273438	950.348022460938	163.8990325927735	-1365.069702148438	591.686706542969	304.7286071777345	-1317.353637695313	528.9471435546877	293.116912841797	-1314.718139648438	589.8568115234377	302.9557495117189	-1231.910278320313	35.4379348754883	271.6726379394532	-1196.323364257813	52.27988433837893	227.9376373291017	-1484.726928710938	559.0550537109377	28.34630012512208	-1409.736694335938	585.271667480469	34.94474411010744	-1561.466064453126	207.8672943115236	56.65131378173831	-1518.324096679688	231.8207550048829	59.935173034668	-1614.759277343751	32.69039535522462	117.846305847168	-1421.064331054688	25.78312492370607	117.7232360839844	-1462.11572265625	12.84438514709473	66.85811614990237	-1546.488159179688	285.4525451660157	43.78329086303712	-1321.992431640625	269.6748962402345	283.5629882812501	-1372.135864257813	41.78892135620119	189.6252441406251	-1291.265747070313	233.5147247314454	268.853973388672	-1278.019653320313	310.1858215332032	279.9910888671876	-1451.5302734375	610.187927246094	16.75389480590821	-1576.853027343751	916.5859375000005	119.0059814453126	-1589.388183593751	891.4953613281255	133.2701568603516	-1592.671752929688	888.756713867188	183.7809295654297	-1581.000488281251	912.900756835938	207.0488433837892	-1557.084594726563	1057.01513671875	153.2081909179688	
2	0.005	-1509.18505859375	1354.567016601563	143.9710540771485	-1567.694702148438	1257.579467773438	246.4460601806642	-1392.879516601563	1254.83349609375	149.4727783203126	-1339.870849609375	1071.116821289063	157.9549255371094	-1381.140625	873.3650512695317	274.1991271972657	-1364.121826171875	875.0114746093755	47.73744964599611	-1569.799438476563	949.310180664063	164.1411895751954	-1358.51904296875	590.7388305664065	304.2046508789064	-1310.71435546875	528.1383056640627	292.3325195312501	-1308.1572265625	588.9932861328127	302.3150329589845	-1209.726928710938	36.5128860473633	272.3561401367189	-1174.601318359375	54.57822036743167	228.7284698486329	-1481.599365234375	558.747253417969	28.12811279296876	-1406.39111328125	584.2180786132815	34.67260360717775	-1560.651245117188	207.9246063232423	56.5827560424805	-1517.388061523438	231.6985168457032	59.77959823608401	-1614.781616210938	32.80074310302736	117.9178009033204	-1421.037231445313	25.77163314819337	117.6548156738282	-1462.114501953125	12.87194347381593	66.82945251464847	-1545.281127929688	285.4291381835939	43.66788864135744	-1308.553833007813	268.1419982910157	283.2952270507814	-1349.967529296875	38.36352920532228	189.9231567382813	-1276.52099609375	233.0528411865236	269.1085815429689	-1266.0546875	310.2214965820314	280.0496520996095	-1447.8935546875	609.5518188476565	16.56085968017579	-1570.599121093751	915.584838867188	119.2205810546876	-1583.126464843751	890.484008789063	133.532211303711	-1586.298339843751	887.746704101563	184.0497283935547	-1574.596191406251	911.7716674804692	207.2133331298829	-1550.849487304688	1055.946655273438	153.0743103027344	
3	0.01	-1502.8603515625	1353.484497070313	144.0836944580079	-1561.777587890626	1256.284301757813	246.0142669677736	-1386.593994140625	1253.676147460938	149.7734069824219	-1333.611572265625	1069.911743164063	157.9873962402344	-1374.532592773438	872.2886352539067	273.9372863769532	-1357.801513671875	873.8059082031255	47.49755096435548	-1563.299194335938	948.1901245117192	164.4403228759766	-1352.034790039063	589.6013183593752	303.7794494628907	-1304.174560546875	527.1050415039065	291.6426086425782	-1301.662719726563	587.9107666015627	301.752410888672	-1187.87451171875	37.86263275146486	273.0357971191407	-1153.24755859375	57.12249755859378	229.5353546142579	-1478.401611328125	558.3955688476565	27.94128417968751	-1402.98291015625	583.1479492187502	34.31385803222658	-1559.783203125001	207.9895782470704	56.53053665161136	-1516.388671875	231.5677947998048	59.61458969116214	-1614.797851562501	32.92934417724611	118.0024108886719	-1421.01025390625	25.75235748291017	117.590316772461	-1462.1142578125	12.8964023590088	66.79863739013675	-1543.993408203126	285.4084472656251	43.57046127319337	-1295.268798828125	266.6887207031251	283.0374755859376	-1327.99755859375	35.39709091186525	190.2281036376954	-1261.9755859375	232.7099456787111	269.3658447265626	-1254.2666015625	310.2816467285157	280.0910949707032	-1444.22705078125	608.8823242187502	16.36636924743653	-1564.338623046876	914.5131225585942	119.4878158569337	-1576.856445312501	889.404174804688	133.8416595458985	-1579.907592773438	886.6555786132817	184.365219116211	-1568.172607421876	910.5512084960942	207.4200286865236	-1544.603271484376	1054.800537109375	152.9785461425782	
4	0.015	-1496.52783203125	1352.330078125	144.1999511718751	-1555.839111328126	1254.913208007813	245.5974121093751	-1380.292724609375	1252.440063476563	150.0679626464844	-1327.3251953125	1068.622314453125	158.0141754150391	-1367.8984375	871.118774414063	273.6906738281251	-1351.481811523438	872.5463867187505	47.26963424682619	-1556.774780273438	946.992065429688	164.7948455810547	-1345.609497070313	588.2797851562502	303.4552612304689	-1297.7265625	525.851013183594	291.0489501953126	-1295.227294921875	586.612976074219	301.2839965820314	-1166.390014648438	39.47201538085939	273.7072143554689	-1132.29638671875	59.89648056030276	230.3479156494142	-1475.12255859375	558.0012817382815	27.79036521911623	-1399.4990234375	582.065124511719	33.87705993652345	-1558.858398437501	208.0647583007814	56.49362945556643	-1515.322265625	231.4286041259767	59.44326400756839	-1614.808105468751	33.08070755004884	118.0975799560547	-1420.983764648438	25.72542762756349	117.5318908691407	-1462.116088867188	12.9159336090088	66.76789855957034	-1542.620117187501	285.3923339843751	43.49060821533205	-1282.151000976563	265.3253784179689	282.7949218750001	-1306.288208007813	32.89063262939455	190.5523529052735	-1247.646850585938	232.4884796142579	269.6264953613282	-1242.65966796875	310.3707580566407	280.1146850585939	-1440.523315429688	608.1826782226565	16.17259216308594	-1558.071289062501	913.3746948242192	119.8067092895508	-1570.578125000001	888.2592773437505	134.1984558105469	-1573.498779296876	885.487915039063	184.7275085449219	-1561.729614257813	909.244506835938	207.6684112548829	-1538.344970703126	1053.581787109375	152.9188232421876	
5	0.02	-1490.185791015625	1351.108764648438	144.3206634521485	-1549.877441406251	1253.471435546875	245.1968078613282	-1373.973999023438	1251.130126953125	150.3577270507813	-1321.01171875	1067.254028320313	158.036849975586	-1361.238647460938	869.8627929687505	273.457733154297	-1345.163818359375	871.239624023438	47.05188751220705	-1550.226928710938	945.720825195313	165.2028808593751	-1339.236206054688	586.7837524414065	303.2302856445314	-1291.363037109375	524.3847656250002	290.5484924316407	-1288.843994140625	585.1077270507815	300.9233398437501	-1145.311279296875	41.32303619384767	274.3673095703126	-1111.781982421875	62.87968444824222	231.1564788818361	-1471.753540039063	557.566833496094	27.67760086059572	-1395.929931640625	580.9736328125002	33.37360000610353	-1557.873291015626	208.1528167724611	56.46995925903323	-1514.185791015625	231.2813110351564	59.26860809326175	-1614.812133789063	33.25971984863283	118.2000961303712	-1420.958740234375	25.69161796569826	117.4810104370118	-1462.121337890625	12.92886638641358	66.73930358886722	-1541.157226562501	285.3826904296876	43.42699050903322	-1269.21533203125	264.0611877441407	282.5726318359376	-1284.902709960938	30.83745193481447	190.9087371826172	-1233.552612304688	232.3886566162111	269.8916015625001	-1231.238037109375	310.4922790527345	280.1206970214845	-1436.776000976563	607.4566650390627	15.98109245300294	-1551.796875000001	912.173950195313	120.1760482788087	-1564.291137695313	887.053344726563	134.6023101806641	-1567.071166992188	884.2485961914067	185.1364746093751	-1555.266967773438	907.8571777343755	207.9578247070314	-1532.073364257813	1052.296142578125	152.8928680419922	
6	0.025	-1483.832397460938	1349.826049804688	144.4467773437501	-1543.891113281251	1251.964965820313	244.8136749267579	-1367.63623046875	1249.751831054688	150.6439971923829	-1314.670532226563	1065.812377929688	158.0570983886719	-1354.553955078125	868.5288696289067	273.2368469238282	-1338.847778320313	869.8923339843755	46.84235763549806	-1543.655761718751	944.3816528320317	165.6622772216797	-1332.907836914063	585.1264648437502	303.0989074707032	-1285.076293945313	522.7200317382815	290.1339111328126	-1282.506103515625	583.407653808594	300.6800537109376	-1124.676879882813	43.39470672607423	275.0138549804689	-1091.738891601563	66.04699707031253	231.9519653320314	-1468.28857421875	557.0955200195315	27.60291671752931	-1392.269653320313	579.8776855468752	32.81693649291994	-1556.825195312501	208.2565155029298	56.45654296875003	-1512.976928710938	231.1268615722657	59.09320831298831	-1614.809814453126	33.4715919494629	118.306266784668	-1420.935668945313	25.65214157104494	117.4384765625001	-1462.131225585938	12.93390178680421	66.71457672119143	-1539.601562500001	285.3812255859376	43.37744522094728	-1256.47705078125	262.903778076172	282.3753662109376	-1263.9052734375	29.2225856781006	191.3096008300782	-1219.7109375	232.4080047607423	270.1623535156251	-1220.006103515625	310.6480407714845	280.110321044922	-1432.979248046875	606.7081298828127	15.79278755187989	-1545.514526367188	910.915649414063	120.5943145751954	-1557.994628906251	885.790893554688	135.0526885986329	-1560.623657226563	882.9431762695317	185.5917053222657	-1548.783813476563	906.3955688476567	208.2873077392579	-1525.787231445313	1050.94921875	152.8982238769532	
7	0.03	-1477.466064453125	1348.487915039063	144.5792846679688	-1537.878540039063	1250.399780273438	244.4492797851564	-1361.278076171875	1248.31103515625	150.9281463623047	-1308.30126953125	1064.30419921875	158.0765838623047	-1347.844360351563	867.1259155273442	273.0264587402345	-1332.533935546875	868.511108398438	46.63899993896486	-1537.061401367188	942.9804077148442	166.1705474853516	-1326.617431640625	583.3250122070315	303.0521240234376	-1278.858154296875	520.8765869140627	289.794647216797	-1276.206787109375	581.530700683594	300.5588989257814	-1104.527221679688	45.66272354125978	275.6448974609376	-1072.202514648438	69.36834716796878	232.7255706787111	-1464.723876953125	556.5916748046877	27.56410408020021	-1388.516357421875	578.7815551757815	32.22157669067384	-1555.711914062501	208.3786468505861	56.44970703125003	-1511.694091796875	230.9667816162111	58.919059753418	-1614.800415039063	33.72181320190431	118.4120864868165	-1420.915405273438	25.60846328735353	117.4044570922852	-1462.146484375	12.930251121521	66.69500732421878	-1537.951049804688	285.389862060547	43.33918380737306	-1243.951538085938	261.8583374023439	282.207489013672	-1243.3603515625	28.02243232727052	191.7654418945313	-1206.139038085938	232.5408325195314	270.4394531250001	-1208.9677734375	310.8377685546876	280.0852966308595	-1429.128295898438	605.9412841796877	15.60796737670899	-1539.223266601563	909.6049804687505	121.0596923828126	-1551.687866210938	884.4768066406255	135.5487365722657	-1554.154907226563	881.5775756835942	186.0924987792969	-1542.279541015626	904.8666381835942	208.6555786132814	-1519.485229492188	1049.547241210938	152.9322662353516	
